<svg width="64" height="64" viewBox="0 0 64 64" fill="none" xmlns="http://www.w3.org/2000/svg" role="img" aria-label="AMA LLU-IA">
  <rect x="2" y="2" width="60" height="60" rx="16" fill="#141F3D" />
  <rect x="2" y="2" width="60" height="60" rx="16" stroke="#2A3A66" stroke-width="1" />

  <g stroke="#C7D0DE" stroke-width="2" stroke-linecap="round" opacity="0.9">
    <line x1="32" y1="8" x2="32" y2="18" />
    <line x1="32" y1="46" x2="32" y2="56" />
    <line x1="8" y1="32" x2="18" y2="32" />
    <line x1="46" y1="32" x2="56" y2="32" />
    <line x1="15.5" y1="15.5" x2="22.5" y2="22.5" />
    <line x1="48.5" y1="15.5" x2="41.5" y2="22.5" />
    <line x1="15.5" y1="48.5" x2="22.5" y2="41.5" />
    <line x1="48.5" y1="48.5" x2="41.5" y2="41.5" />
  </g>

  <g fill="#C7D0DE">
    <circle cx="32" cy="8" r="2" />
    <circle cx="32" cy="56" r="2" />
    <circle cx="8" cy="32" r="2" />
    <circle cx="56" cy="32" r="2" />
    <circle cx="15.5" cy="15.5" r="2" />
    <circle cx="48.5" cy="15.5" r="2" />
    <circle cx="15.5" cy="48.5" r="2" />
    <circle cx="48.5" cy="48.5" r="2" />
  </g>

  <circle cx="32" cy="32" r="14" fill="#0B0E14" stroke="#F5822B" stroke-width="2.5" />
  <path d="M24.5 32.5L29.5 37.5L39.5 26" fill="none" stroke="#F5822B" stroke-width="3.5" stroke-linecap="round" stroke-linejoin="round" />
</svg>
